<mxfile host="Electron" agent="Mozilla/5.0 (Windows NT 10.0; Win64; x64) AppleWebKit/537.36 (KHTML, like Gecko) draw.io/26.0.15 Chrome/132.0.6834.196 Electron/34.2.0 Safari/537.36" version="26.0.15">
  <diagram id="yXtFEdph1rZkxpV_wKKv" name="ページ1">
    <mxGraphModel dx="1195" dy="725" grid="1" gridSize="10" guides="1" tooltips="1" connect="1" arrows="1" fold="1" page="1" pageScale="1" pageWidth="580" pageHeight="450" background="#ffffff" math="1" shadow="0">
      <root>
        <mxCell id="0" />
        <mxCell id="1" parent="0" />
        <mxCell id="Yd8q_fSueZZB_jAQ2kAG-34" value="" style="rounded=0;whiteSpace=wrap;html=1;strokeColor=none;" vertex="1" parent="1">
          <mxGeometry x="10" y="10" width="560" height="430" as="geometry" />
        </mxCell>
        <mxCell id="Yd8q_fSueZZB_jAQ2kAG-1" value="" style="endArrow=classic;html=1;rounded=0;" edge="1" parent="1">
          <mxGeometry width="50" height="50" relative="1" as="geometry">
            <mxPoint x="65" y="409" as="sourcePoint" />
            <mxPoint x="65" y="89" as="targetPoint" />
          </mxGeometry>
        </mxCell>
        <mxCell id="Yd8q_fSueZZB_jAQ2kAG-2" value="" style="endArrow=classic;html=1;rounded=0;exitX=0.25;exitY=0;exitDx=0;exitDy=0;" edge="1" parent="1" source="Yd8q_fSueZZB_jAQ2kAG-32">
          <mxGeometry width="50" height="50" relative="1" as="geometry">
            <mxPoint x="55" y="380" as="sourcePoint" />
            <mxPoint x="505" y="380" as="targetPoint" />
          </mxGeometry>
        </mxCell>
        <mxCell id="Yd8q_fSueZZB_jAQ2kAG-3" value="`f(x)`" style="text;html=1;align=center;verticalAlign=middle;whiteSpace=wrap;rounded=0;fontSize=24;" vertex="1" parent="1">
          <mxGeometry x="34" y="50" width="60" height="30" as="geometry" />
        </mxCell>
        <mxCell id="Yd8q_fSueZZB_jAQ2kAG-4" value="`x`" style="text;html=1;align=center;verticalAlign=middle;whiteSpace=wrap;rounded=0;fontSize=24;" vertex="1" parent="1">
          <mxGeometry x="505" y="360" width="60" height="30" as="geometry" />
        </mxCell>
        <mxCell id="Yd8q_fSueZZB_jAQ2kAG-5" value="" style="endArrow=none;html=1;rounded=0;curved=1;" edge="1" parent="1" source="Yd8q_fSueZZB_jAQ2kAG-10">
          <mxGeometry width="50" height="50" relative="1" as="geometry">
            <mxPoint x="65" y="380" as="sourcePoint" />
            <mxPoint x="465" y="100" as="targetPoint" />
            <Array as="points">
              <mxPoint x="145" y="90" />
              <mxPoint x="385" y="420" />
            </Array>
          </mxGeometry>
        </mxCell>
        <mxCell id="Yd8q_fSueZZB_jAQ2kAG-6" value="" style="endArrow=none;dashed=1;html=1;rounded=0;" edge="1" parent="1">
          <mxGeometry width="50" height="50" relative="1" as="geometry">
            <mxPoint x="183" y="400" as="sourcePoint" />
            <mxPoint x="183" y="170" as="targetPoint" />
          </mxGeometry>
        </mxCell>
        <mxCell id="Yd8q_fSueZZB_jAQ2kAG-11" value="" style="endArrow=none;html=1;rounded=0;curved=1;" edge="1" parent="1" target="Yd8q_fSueZZB_jAQ2kAG-10">
          <mxGeometry width="50" height="50" relative="1" as="geometry">
            <mxPoint x="65" y="380" as="sourcePoint" />
            <mxPoint x="465" y="100" as="targetPoint" />
            <Array as="points" />
          </mxGeometry>
        </mxCell>
        <mxCell id="Yd8q_fSueZZB_jAQ2kAG-10" value="" style="ellipse;whiteSpace=wrap;html=1;aspect=fixed;fillColor=#FF0000;" vertex="1" parent="1">
          <mxGeometry x="55" y="370" width="20" height="20" as="geometry" />
        </mxCell>
        <mxCell id="Yd8q_fSueZZB_jAQ2kAG-23" value="" style="endArrow=none;dashed=1;html=1;rounded=0;" edge="1" parent="1">
          <mxGeometry width="50" height="50" relative="1" as="geometry">
            <mxPoint x="345" y="400" as="sourcePoint" />
            <mxPoint x="345" y="170" as="targetPoint" />
          </mxGeometry>
        </mxCell>
        <mxCell id="Yd8q_fSueZZB_jAQ2kAG-24" value="" style="endArrow=none;dashed=1;html=1;rounded=0;entryX=0.5;entryY=0;entryDx=0;entryDy=0;" edge="1" parent="1" target="Yd8q_fSueZZB_jAQ2kAG-19">
          <mxGeometry width="50" height="50" relative="1" as="geometry">
            <mxPoint x="464.5" y="400" as="sourcePoint" />
            <mxPoint x="464.5" y="170" as="targetPoint" />
          </mxGeometry>
        </mxCell>
        <mxCell id="Yd8q_fSueZZB_jAQ2kAG-19" value="" style="ellipse;whiteSpace=wrap;html=1;aspect=fixed;fillColor=#FF0000;" vertex="1" parent="1">
          <mxGeometry x="455" y="90" width="20" height="20" as="geometry" />
        </mxCell>
        <mxCell id="Yd8q_fSueZZB_jAQ2kAG-18" value="" style="ellipse;whiteSpace=wrap;html=1;aspect=fixed;fillColor=#FF0000;" vertex="1" parent="1">
          <mxGeometry x="335" y="301" width="20" height="20" as="geometry" />
        </mxCell>
        <mxCell id="Yd8q_fSueZZB_jAQ2kAG-15" value="" style="ellipse;whiteSpace=wrap;html=1;aspect=fixed;fillColor=#FF0000;" vertex="1" parent="1">
          <mxGeometry x="172" y="185" width="20" height="20" as="geometry" />
        </mxCell>
        <mxCell id="Yd8q_fSueZZB_jAQ2kAG-25" value="最大" style="text;html=1;align=center;verticalAlign=middle;whiteSpace=wrap;rounded=0;fontSize=24;" vertex="1" parent="1">
          <mxGeometry x="435" y="50" width="60" height="30" as="geometry" />
        </mxCell>
        <mxCell id="Yd8q_fSueZZB_jAQ2kAG-26" value="極小" style="text;html=1;align=center;verticalAlign=middle;whiteSpace=wrap;rounded=0;fontSize=24;" vertex="1" parent="1">
          <mxGeometry x="345" y="321" width="60" height="30" as="geometry" />
        </mxCell>
        <mxCell id="Yd8q_fSueZZB_jAQ2kAG-27" value="極大" style="text;html=1;align=center;verticalAlign=middle;whiteSpace=wrap;rounded=0;fontSize=24;" vertex="1" parent="1">
          <mxGeometry x="151" y="136" width="60" height="30" as="geometry" />
        </mxCell>
        <mxCell id="Yd8q_fSueZZB_jAQ2kAG-29" value="最小" style="text;html=1;align=center;verticalAlign=middle;whiteSpace=wrap;rounded=0;fontSize=24;" vertex="1" parent="1">
          <mxGeometry x="75" y="347" width="60" height="30" as="geometry" />
        </mxCell>
        <mxCell id="Yd8q_fSueZZB_jAQ2kAG-32" value="`O`" style="text;html=1;align=center;verticalAlign=middle;whiteSpace=wrap;rounded=0;fontSize=24;" vertex="1" parent="1">
          <mxGeometry x="15" y="380" width="60" height="30" as="geometry" />
        </mxCell>
      </root>
    </mxGraphModel>
  </diagram>
</mxfile>
